<svg xmlns="http://www.w3.org/2000/svg" width="128" height="128" viewBox="0 0 128 128" role="img">
  <title>Feedback Icon</title>
  <rect width="128" height="128" rx="24" fill="#6366f1"/>
  <!-- Main speech bubble -->
  <rect x="14" y="18" width="84" height="58" rx="10" fill="white" opacity="0.95"/>
  <!-- Bubble tail -->
  <polygon points="28,76 14,94 46,76" fill="white" opacity="0.95"/>
  <!-- Star 1 -->
  <polygon points="34,38 36.4,44.6 43.4,44.6 37.9,48.6 40.1,55.2 34,51.2 27.9,55.2 30.1,48.6 24.6,44.6 31.6,44.6" fill="#6366f1"/>
  <!-- Star 2 -->
  <polygon points="56,38 58.4,44.6 65.4,44.6 59.9,48.6 62.1,55.2 56,51.2 49.9,55.2 52.1,48.6 46.6,44.6 53.6,44.6" fill="#6366f1"/>
  <!-- Star 3 -->
  <polygon points="78,38 80.4,44.6 87.4,44.6 81.9,48.6 84.1,55.2 78,51.2 71.9,55.2 74.1,48.6 68.6,44.6 75.6,44.6" fill="#a5b4fc"/>
  <!-- Secondary small bubble -->
  <rect x="72" y="68" width="42" height="28" rx="8" fill="#4f46e5" opacity="0.9"/>
  <rect x="80" y="76" width="26" height="3" rx="2" fill="white" opacity="0.8"/>
  <rect x="80" y="83" width="18" height="3" rx="2" fill="white" opacity="0.5"/>
</svg>
