<svg xmlns="http://www.w3.org/2000/svg" width="128" height="128" viewBox="0 0 128 128" role="img">
  <title>Landing Page Icon</title>
  <rect width="128" height="128" rx="24" fill="#6366f1"/>
  <!-- Browser frame -->
  <rect x="10" y="20" width="108" height="86" rx="8" fill="white" opacity="0.95"/>
  <!-- Browser toolbar -->
  <rect x="10" y="20" width="108" height="18" rx="8" fill="#4f46e5"/>
  <rect x="10" y="30" width="108" height="8" fill="#4f46e5"/>
  <!-- Traffic lights -->
  <circle cx="22" cy="29" r="4" fill="#818cf8"/>
  <circle cx="34" cy="29" r="4" fill="#818cf8"/>
  <circle cx="46" cy="29" r="4" fill="#818cf8"/>
  <!-- URL bar -->
  <rect x="56" y="24" width="52" height="10" rx="5" fill="#3730a3"/>
  <rect x="60" y="27" width="30" height="4" rx="2" fill="#a5b4fc"/>
  <!-- Hero section -->
  <rect x="18" y="46" width="92" height="22" rx="4" fill="#e0e7ff"/>
  <rect x="28" y="50" width="40" height="5" rx="2.5" fill="#6366f1"/>
  <rect x="28" y="59" width="28" height="4" rx="2" fill="#a5b4fc"/>
  <!-- CTA button -->
  <rect x="68" y="50" width="34" height="13" rx="5" fill="#6366f1"/>
  <rect x="74" y="54" width="22" height="5" rx="2.5" fill="white" opacity="0.9"/>
  <!-- Cards row -->
  <rect x="18" y="74" width="26" height="24" rx="4" fill="#e0e7ff"/>
  <rect x="51" y="74" width="26" height="24" rx="4" fill="#e0e7ff"/>
  <rect x="84" y="74" width="26" height="24" rx="4" fill="#e0e7ff"/>
  <!-- Card icons -->
  <circle cx="31" cy="82" r="4" fill="#6366f1"/>
  <rect x="23" y="89" width="16" height="3" rx="1.5" fill="#a5b4fc"/>
  <circle cx="64" cy="82" r="4" fill="#6366f1"/>
  <rect x="56" y="89" width="16" height="3" rx="1.5" fill="#a5b4fc"/>
  <circle cx="97" cy="82" r="4" fill="#6366f1"/>
  <rect x="89" y="89" width="16" height="3" rx="1.5" fill="#a5b4fc"/>
</svg>
