<svg xmlns="http://www.w3.org/2000/svg" width="128" height="128" viewBox="0 0 128 128" role="img">
  <title>Organization and Club Management Icon</title>
  <rect width="128" height="128" rx="24" fill="#6366f1"/>
  <!-- Root node -->
  <rect x="44" y="14" width="40" height="24" rx="6" fill="white" opacity="0.95"/>
  <rect x="50" y="20" width="28" height="4" rx="2" fill="#6366f1"/>
  <rect x="54" y="28" width="20" height="4" rx="2" fill="#a5b4fc"/>
  <!-- Connector vertical -->
  <rect x="62" y="38" width="4" height="14" rx="2" fill="white" opacity="0.7"/>
  <!-- Connector horizontal -->
  <rect x="22" y="50" width="84" height="4" rx="2" fill="white" opacity="0.7"/>
  <!-- Left branch down -->
  <rect x="22" y="50" width="4" height="14" rx="2" fill="white" opacity="0.7"/>
  <!-- Center branch down -->
  <rect x="62" y="50" width="4" height="14" rx="2" fill="white" opacity="0.7"/>
  <!-- Right branch down -->
  <rect x="102" y="50" width="4" height="14" rx="2" fill="white" opacity="0.7"/>
  <!-- Left node -->
  <rect x="10" y="64" width="30" height="22" rx="6" fill="#4f46e5"/>
  <rect x="14" y="70" width="22" height="3" rx="2" fill="white" opacity="0.9"/>
  <rect x="14" y="77" width="14" height="3" rx="2" fill="#a5b4fc"/>
  <!-- Center node -->
  <rect x="49" y="64" width="30" height="22" rx="6" fill="#4f46e5"/>
  <rect x="53" y="70" width="22" height="3" rx="2" fill="white" opacity="0.9"/>
  <rect x="53" y="77" width="14" height="3" rx="2" fill="#a5b4fc"/>
  <!-- Right node -->
  <rect x="88" y="64" width="30" height="22" rx="6" fill="#4f46e5"/>
  <rect x="92" y="70" width="22" height="3" rx="2" fill="white" opacity="0.9"/>
  <rect x="92" y="77" width="14" height="3" rx="2" fill="#a5b4fc"/>
  <!-- Bottom leaf nodes -->
  <rect x="10" y="96" width="22" height="16" rx="5" fill="white" opacity="0.5"/>
  <rect x="38" y="96" width="22" height="16" rx="5" fill="white" opacity="0.5"/>
  <rect x="68" y="96" width="22" height="16" rx="5" fill="white" opacity="0.5"/>
  <rect x="96" y="96" width="22" height="16" rx="5" fill="white" opacity="0.5"/>
</svg>
