<svg xmlns="http://www.w3.org/2000/svg" width="128" height="128" viewBox="0 0 128 128" role="img">
  <title>QR Code Icon</title>
  <rect width="128" height="128" rx="24" fill="#6366f1"/>
  <!-- White card bg -->
  <rect x="14" y="14" width="100" height="100" rx="10" fill="white" opacity="0.95"/>
  <!-- Top-left QR box -->
  <rect x="22" y="22" width="30" height="30" rx="4" fill="#4f46e5"/>
  <rect x="27" y="27" width="20" height="20" rx="2" fill="white"/>
  <rect x="31" y="31" width="12" height="12" rx="1" fill="#4f46e5"/>
  <!-- Top-right QR box -->
  <rect x="76" y="22" width="30" height="30" rx="4" fill="#4f46e5"/>
  <rect x="81" y="27" width="20" height="20" rx="2" fill="white"/>
  <rect x="85" y="31" width="12" height="12" rx="1" fill="#4f46e5"/>
  <!-- Bottom-left QR box -->
  <rect x="22" y="76" width="30" height="30" rx="4" fill="#4f46e5"/>
  <rect x="27" y="81" width="20" height="20" rx="2" fill="white"/>
  <rect x="31" y="85" width="12" height="12" rx="1" fill="#4f46e5"/>
  <!-- Data dots bottom-right -->
  <rect x="64" y="64" width="6" height="6" rx="1" fill="#6366f1"/>
  <rect x="74" y="64" width="6" height="6" rx="1" fill="#6366f1"/>
  <rect x="84" y="64" width="6" height="6" rx="1" fill="#a5b4fc"/>
  <rect x="94" y="64" width="6" height="6" rx="1" fill="#6366f1"/>
  <rect x="64" y="74" width="6" height="6" rx="1" fill="#a5b4fc"/>
  <rect x="74" y="74" width="6" height="6" rx="1" fill="#6366f1"/>
  <rect x="84" y="74" width="6" height="6" rx="1" fill="#6366f1"/>
  <rect x="94" y="74" width="6" height="6" rx="1" fill="#a5b4fc"/>
  <rect x="64" y="84" width="6" height="6" rx="1" fill="#6366f1"/>
  <rect x="74" y="84" width="6" height="6" rx="1" fill="#a5b4fc"/>
  <rect x="84" y="84" width="6" height="6" rx="1" fill="#6366f1"/>
  <rect x="94" y="84" width="6" height="6" rx="1" fill="#6366f1"/>
  <rect x="64" y="94" width="6" height="6" rx="1" fill="#a5b4fc"/>
  <rect x="74" y="94" width="6" height="6" rx="1" fill="#6366f1"/>
  <rect x="84" y="94" width="6" height="6" rx="1" fill="#a5b4fc"/>
  <rect x="94" y="94" width="6" height="6" rx="1" fill="#6366f1"/>
</svg>
