<svg xmlns="http://www.w3.org/2000/svg" width="128" height="128" viewBox="0 0 128 128" role="img">
  <title>User Management Icon</title>
  <rect width="128" height="128" rx="24" fill="#6366f1"/>
  <!-- Primary user -->
  <circle cx="52" cy="38" r="18" fill="white" opacity="0.95"/>
  <circle cx="52" cy="38" r="10" fill="#4f46e5"/>
  <!-- Body -->
  <path d="M18 94 Q18 70 52 70 Q86 70 86 94" fill="white" opacity="0.95"/>
  <!-- Settings badge -->
  <circle cx="90" cy="42" r="20" fill="#4f46e5"/>
  <circle cx="90" cy="42" r="14" fill="none" stroke="white" stroke-width="5" opacity="0.95"/>
  <rect x="83" y="24" width="14" height="8" rx="3" fill="white" opacity="0.95"/>
  <rect x="83" y="52" width="14" height="8" rx="3" fill="white" opacity="0.95"/>
  <rect x="72" y="35" width="8" height="14" rx="3" fill="white" opacity="0.95"/>
  <rect x="100" y="35" width="8" height="14" rx="3" fill="white" opacity="0.95"/>
  <circle cx="90" cy="42" r="6" fill="white" opacity="0.95"/>
  <!-- Plus badge small -->
  <circle cx="90" cy="84" r="14" fill="white" opacity="0.95"/>
  <rect x="86" y="78" width="8" height="12" rx="3" fill="#6366f1"/>
  <rect x="84" y="80" width="12" height="8" rx="3" fill="#6366f1"/>
</svg>
